<svg width="20" height="20" viewBox="0 0 20 20" fill="none" xmlns="http://www.w3.org/2000/svg">
<path d="M5.32225 13.75H16V4.75H4V14.7887L5.32225 13.75ZM5.84125 15.25L2.5 17.875V4C2.5 3.80109 2.57902 3.61032 2.71967 3.46967C2.86032 3.32902 3.05109 3.25 3.25 3.25H16.75C16.9489 3.25 17.1397 3.32902 17.2803 3.46967C17.421 3.61032 17.5 3.80109 17.5 4V14.5C17.5 14.6989 17.421 14.8897 17.2803 15.0303C17.1397 15.171 16.9489 15.25 16.75 15.25H5.84125ZM9.25 11.5H10.75V13H9.25V11.5ZM7.42525 7.60975C7.52269 7.12209 7.75661 6.67213 8.0998 6.31223C8.44298 5.95233 8.88131 5.69728 9.36378 5.57677C9.84626 5.45625 10.353 5.47523 10.8251 5.63149C11.2973 5.78774 11.7153 6.07486 12.0306 6.45941C12.3459 6.84397 12.5455 7.31016 12.6062 7.80374C12.6669 8.29732 12.5862 8.79799 12.3735 9.24749C12.1607 9.69699 11.8247 10.0768 11.4046 10.3428C10.9844 10.6088 10.4973 10.75 10 10.75H9.25V9.25H10C10.2131 9.24999 10.4217 9.18947 10.6017 9.0755C10.7818 8.96152 10.9257 8.79877 11.0168 8.60619C11.108 8.4136 11.1425 8.1991 11.1165 7.98763C11.0905 7.77617 11.005 7.57644 10.8699 7.41168C10.7348 7.24693 10.5557 7.12392 10.3534 7.05698C10.1511 6.99003 9.93403 6.9819 9.72732 7.03353C9.52061 7.08516 9.33281 7.19442 9.18577 7.34861C9.03874 7.5028 8.93851 7.69557 8.89675 7.9045L7.42525 7.60975Z" fill="#5C5C5C"/>
</svg>
