<svg width="24" height="24" viewBox="0 0 24 24" fill="none" xmlns="http://www.w3.org/2000/svg">
<path d="M6 16.5H7.5V18H16.5V6H7.5V7.5H6V5.25C6 5.05109 6.07902 4.86032 6.21967 4.71967C6.36032 4.57902 6.55109 4.5 6.75 4.5H17.25C17.4489 4.5 17.6397 4.57902 17.7803 4.71967C17.921 4.86032 18 5.05109 18 5.25V18.75C18 18.9489 17.921 19.1397 17.7803 19.2803C17.6397 19.421 17.4489 19.5 17.25 19.5H6.75C6.55109 19.5 6.36032 19.421 6.21967 19.2803C6.07902 19.1397 6 18.9489 6 18.75V16.5ZM7.5 11.25H12.75V12.75H7.5V15L3.75 12L7.5 9V11.25Z" fill="currentColor"/>
</svg>
